<svg width="25" height="25" viewBox="0 0 25 25" fill="none" xmlns="http://www.w3.org/2000/svg">
<path d="M12.5 13.5417C13.0753 13.5417 13.5417 13.0753 13.5417 12.5C13.5417 11.9247 13.0753 11.4583 12.5 11.4583C11.9247 11.4583 11.4584 11.9247 11.4584 12.5C11.4584 13.0753 11.9247 13.5417 12.5 13.5417Z" stroke="white" stroke-width="2"/>
<path d="M18.9859 11.8547C19.12 12.1187 19.187 12.2507 19.187 12.5C19.187 12.7493 19.12 12.8812 18.9859 13.1453C18.3334 14.4305 16.4708 17.1875 12.5 17.1875C8.52914 17.1875 6.66657 14.4305 6.01403 13.1453C5.88 12.8812 5.81299 12.7493 5.81299 12.5C5.81299 12.2507 5.88 12.1187 6.01403 11.8547C6.66657 10.5695 8.52914 7.8125 12.5 7.8125C16.4708 7.8125 18.3334 10.5695 18.9859 11.8547Z" stroke="white" stroke-width="2"/>
<path d="M17.7083 4.16666H17.9167C19.7826 4.16666 20.7156 4.16666 21.2953 4.74634C21.875 5.32602 21.875 6.25901 21.875 8.12499V8.33332M17.7083 20.8333H17.9167C19.7826 20.8333 20.7156 20.8333 21.2953 20.2536C21.875 19.6739 21.875 18.7409 21.875 16.875V16.6667M7.29167 4.16666H7.08333C5.21735 4.16666 4.28436 4.16666 3.70469 4.74634C3.125 5.32602 3.125 6.25901 3.125 8.12499V8.33332M7.29167 20.8333H7.08333C5.21735 20.8333 4.28436 20.8333 3.70469 20.2536C3.125 19.6739 3.125 18.7409 3.125 16.875V16.6667" stroke="white" stroke-width="2" stroke-linecap="round"/>
</svg>
