<svg width="119" height="55" viewBox="0 0 119 55" fill="none" xmlns="http://www.w3.org/2000/svg">
<g clip-path="url(#clip0_7_1652)">
<path d="M25.0681 20.349H20.4683V35.0383H25.078V28.6867C25.078 25.8294 26.7257 24.1243 29.413 24.1243C29.9328 24.1243 31.7037 24.1243 31.908 24.1243V20.349C31.5273 20.349 29.9034 20.349 29.5699 20.349C27.8928 20.349 26.4412 20.1559 25.0681 21.7298V20.349Z" fill="#222222"/>
<path d="M50.8737 30.2176H45.7741C45.2228 31.5556 43.9036 32.3296 42.1315 32.3296C39.9263 32.3296 38.3511 30.963 38.3511 28.851H51.11V28.2394C51.11 22.9164 47.8809 19.9443 42.1217 19.9443C36.5298 19.9443 33.1333 22.945 33.1333 27.6756C33.1333 32.4348 36.579 35.4355 42.1217 35.4355C46.542 35.4355 49.6333 33.5147 50.8737 30.2176ZM38.4987 25.8598C38.6661 24.0632 40.0936 22.945 42.2496 22.945C44.3958 22.945 45.8332 24.0727 46.0005 25.8598H38.4987Z" fill="#222222"/>
<path d="M65.8174 15.5749V21.1359C64.3883 20.3415 63.3669 20.1429 61.5283 20.1429C56.217 20.1429 53.1528 23.4335 53.1528 27.8885C53.1528 32.8537 55.8763 35.4355 60.7443 35.4355C62.9631 35.4355 64.1583 35.4355 65.8174 35.4355H70.3124V15.5749H65.8174ZM65.8174 27.8885C65.8174 29.1554 65.8174 31.9671 65.8174 31.9671C65.8174 31.9671 62.8417 31.9671 61.5614 31.9671C58.9887 31.9671 57.2384 30.4206 57.2384 27.8885C57.2384 25.3564 58.9365 23.7178 61.5283 23.7178C64.1202 23.7178 65.8174 25.4135 65.8174 27.8885Z" fill="#222222"/>
<path d="M105.45 15.5749V21.1359C106.879 20.3415 107.9 20.1429 109.739 20.1429C115.05 20.1429 118.114 23.4335 118.114 27.8885C118.114 32.8537 115.391 35.4355 110.523 35.4355C108.304 35.4355 107.109 35.4355 105.45 35.4355H100.955V15.5749H105.45ZM105.45 27.8885C105.45 29.1554 105.45 31.9671 105.45 31.9671C105.45 31.9671 108.425 31.9671 109.706 31.9671C112.278 31.9671 114.029 30.4206 114.029 27.8885C114.029 25.3564 112.331 23.7178 109.739 23.7178C107.147 23.7178 105.45 25.4135 105.45 27.8885Z" fill="#222222"/>
<path d="M78.4839 15.5749H73.9897V35.4355H78.4839V15.5749Z" fill="#222222"/>
<path d="M86.4229 25.2386C86.4229 23.528 87.5453 22.8017 89.7804 22.8017C92.0448 22.8017 93.1965 23.3369 93.1965 24.4359C93.1965 26.0414 91.1468 25.9363 87.3501 26.2325C83.1823 26.5577 81.3438 27.7807 81.3438 30.6477C81.3438 33.5147 82.7237 35.4355 86.9109 35.4355C89.4486 35.4355 91.4201 34.8239 93.0891 33.3522V35.4355H97.6862V34.6957C97.6862 33.7662 97.6862 33.5911 97.6862 32.5972V25.4011C97.6862 20.8235 94.0554 19.9443 90.0634 19.9443C84.5391 19.9443 81.6696 21.8174 81.6696 25.2386H86.4229ZM93.1965 27.9432V28.4497C93.1965 30.7528 91.1176 32.387 87.9748 32.387C86.4424 32.387 85.4859 31.6416 85.4859 30.5426C85.4859 29.1473 86.8523 28.9657 89.4486 28.6981C90.9907 28.5357 92.24 28.4497 93.1965 27.9432Z" fill="#222222"/>
<path d="M7.82291 12H13.5223L6.55637 42.1882H0.856934L7.82291 12Z" fill="#E13737"/>
</g>
<defs>
<clipPath id="clip0_7_1652">
<rect width="119" height="31" fill="white" transform="translate(0 12)"/>
</clipPath>
</defs>
</svg>
